# xmcd
#
# Track frame offsets: 
#        150
#        16337
#        35615
#        57485
#        81665
#        99255
#        113212
#        124750
#        144002
#        173560
#        193697
#        209572
#        231277
#        247285
#
# Disc length: 3509 seconds
#
# Revision: 5
# Processed by: cddbd v1.5.2PL0 Copyright (c) Steve Scherf et al.
# Submitted via: ExactAudioCopy v0.90b4
#
DISCID=c70db30e
DTITLE=G. Love and Special Sauce - G. Love and Special Sauce
DYEAR=1994
DGENRE=Booty Bass
TTITLE0=The Things That I Used To Do
TTITLE1=Blues Music
TTITLE2=Garbage Man
TTITLE3=Eyes Have Miles
TTITLE4=Baby's Got Sauce
TTITLE5=Rhyme For The Summertime
TTITLE6=Cold Beverage
TTITLE7=Fatman
TTITLE8=This Ain't Living
TTITLE9=Walk To Slide
TTITLE10=Shooting Hoops
TTITLE11=Some Peoples Likes That
TTITLE12=Town To Town
TTITLE13=I Love You
EXTD=YEAR: 1994
EXTT0=
EXTT1=
EXTT2=
EXTT3=
EXTT4=
EXTT5=
EXTT6=
EXTT7=
EXTT8=
EXTT9=
EXTT10=
EXTT11=
EXTT12=
EXTT13=
PLAYORDER=
